<svg width="28" height="24" viewBox="0 0 28 24" fill="none" xmlns="http://www.w3.org/2000/svg">
<path d="M28 12C28 22.6266 26.3977 24 14 24C1.60235 24 0 22.6266 0 12C0 1.37344 1.60235 0 14 0C26.3977 0 28 1.37344 28 12Z" fill="#FF3F3F" fill-opacity="0.04"/>
<path d="M27.5 12C27.5 14.6537 27.399 16.6866 27.0668 18.2544C26.7368 19.8116 26.1881 20.8644 25.3237 21.6053C24.45 22.3542 23.1934 22.8369 21.3408 23.1253C19.4886 23.4137 17.0975 23.5 14 23.5C10.9025 23.5 8.51143 23.4137 6.65915 23.1253C4.80658 22.8369 3.54999 22.3542 2.67628 21.6053C1.81189 20.8644 1.26318 19.8116 0.933219 18.2544C0.601001 16.6866 0.5 14.6537 0.5 12C0.5 9.34629 0.601001 7.3134 0.933219 5.74557C1.26318 4.18839 1.81189 3.13557 2.67628 2.39467C3.54999 1.64577 4.80658 1.16309 6.65915 0.874689C8.51143 0.586329 10.9025 0.5 14 0.5C17.0975 0.5 19.4886 0.586329 21.3408 0.874689C23.1934 1.16309 24.45 1.64577 25.3237 2.39467C26.1881 3.13557 26.7368 4.18839 27.0668 5.74557C27.399 7.3134 27.5 9.34629 27.5 12Z" stroke="#FF3F3F" stroke-opacity="0.1"/>
<path d="M9.87784 16.1449C9.20455 16.142 8.62926 15.9645 8.15199 15.6122C7.67472 15.2599 7.30966 14.7472 7.05682 14.0739C6.80398 13.4006 6.67756 12.5895 6.67756 11.6406C6.67756 10.6946 6.80398 9.88636 7.05682 9.21591C7.3125 8.54545 7.67898 8.03409 8.15625 7.68182C8.63636 7.32955 9.21023 7.15341 9.87784 7.15341C10.5455 7.15341 11.1179 7.33097 11.5952 7.68608C12.0724 8.03835 12.4375 8.54972 12.6903 9.22017C12.946 9.88778 13.0739 10.6946 13.0739 11.6406C13.0739 12.5923 12.9474 13.4048 12.6946 14.0781C12.4418 14.7486 12.0767 15.2614 11.5994 15.6165C11.1222 15.9688 10.5483 16.1449 9.87784 16.1449ZM9.87784 15.0071C10.4688 15.0071 10.9304 14.7188 11.2628 14.142C11.598 13.5653 11.7656 12.7315 11.7656 11.6406C11.7656 10.9162 11.6889 10.304 11.5355 9.80398C11.3849 9.30114 11.1676 8.92045 10.8835 8.66193C10.6023 8.40057 10.267 8.26989 9.87784 8.26989C9.28977 8.26989 8.82813 8.55966 8.4929 9.1392C8.15767 9.71875 7.98864 10.5526 7.9858 11.6406C7.9858 12.3679 8.06108 12.983 8.21165 13.4858C8.36506 13.9858 8.58239 14.3651 8.86364 14.6236C9.14489 14.8793 9.48295 15.0071 9.87784 15.0071ZM14.5856 16V15.0455L17.5387 11.9858C17.854 11.6534 18.114 11.3622 18.3185 11.1122C18.5259 10.8594 18.6808 10.6193 18.783 10.392C18.8853 10.1648 18.9364 9.9233 18.9364 9.66761C18.9364 9.37784 18.8683 9.12784 18.7319 8.91761C18.5955 8.70455 18.4094 8.54119 18.1737 8.42756C17.9379 8.31108 17.6722 8.25284 17.3768 8.25284C17.0643 8.25284 16.7915 8.31676 16.5586 8.4446C16.3256 8.57244 16.1467 8.75284 16.0217 8.9858C15.8967 9.21875 15.8342 9.49148 15.8342 9.80398H14.5771C14.5771 9.27273 14.6992 8.80824 14.9435 8.41051C15.1879 8.01278 15.5231 7.70455 15.9492 7.4858C16.3754 7.2642 16.8597 7.15341 17.4023 7.15341C17.9506 7.15341 18.4336 7.26278 18.8512 7.48153C19.2717 7.69744 19.5998 7.9929 19.8356 8.3679C20.0714 8.74006 20.1893 9.16051 20.1893 9.62926C20.1893 9.95312 20.1282 10.2699 20.006 10.5795C19.8867 10.8892 19.6779 11.2344 19.3796 11.6151C19.0813 11.9929 18.6665 12.4517 18.1353 12.9915L16.4009 14.8068V14.8707H20.3299V16H14.5856Z" fill="#FF3F3F"/>
</svg>
