<svg width="24" height="24" viewBox="0 0 24 24" fill="none" xmlns="http://www.w3.org/2000/svg">
<path fill-rule="evenodd" clip-rule="evenodd" d="M2.74976 12C2.74976 5.063 5.06276 2.75 11.9998 2.75C18.9368 2.75 21.2498 5.063 21.2498 12C21.2498 18.937 18.9368 21.25 11.9998 21.25C5.06276 21.25 2.74976 18.937 2.74976 12Z" stroke="#AEB3C2" stroke-width="1.5" stroke-linecap="round" stroke-linejoin="round"/>
<path d="M9.08997 9.00008C9.32507 8.33175 9.78912 7.76819 10.3999 7.40921C11.0107 7.05024 11.7289 6.91902 12.4271 7.03879C13.1254 7.15857 13.7588 7.52161 14.215 8.06361C14.6713 8.60561 14.921 9.2916 14.92 10.0001C14.92 12.0001 11.92 13.0001 11.92 13.0001" stroke="#AEB3C2" stroke-width="1.5" stroke-linecap="round" stroke-linejoin="round"/>
<path d="M12 17H12.01" stroke="#AEB3C2" stroke-width="1.5" stroke-linecap="round" stroke-linejoin="round"/>
</svg>
